<svg width="18" height="18" viewBox="0 0 18 18" fill="none" xmlns="http://www.w3.org/2000/svg">
<path d="M8.08015 5.937V7.314H7V8.997H8.08015V14H10.3005V8.997H11.79C11.79 8.997 11.9303 8.19 11.9979 7.307H10.309V6.157C10.309 5.984 10.5512 5.753 10.7913 5.753H12V4H10.3551C8.0255 4 8.08015 5.685 8.08015 5.937Z" fill="#62E0D9"/>
<path d="M9.08068 0.75C4.48751 0.75 0.75 4.48647 0.75 9.08016C0.75 13.6739 4.48751 17.4103 9.08068 17.4103C13.6739 17.4103 17.4114 13.6739 17.4114 9.08016C17.4114 4.48647 13.6739 0.75 9.08068 0.75ZM9.08068 16.8555C4.79351 16.8555 1.3059 13.3673 1.3059 9.08016C1.3059 4.79299 4.79351 1.30486 9.08068 1.30486C13.3679 1.30486 16.8555 4.79299 16.8555 9.08016C16.8555 13.3673 13.3679 16.8555 9.08068 16.8555Z" fill="#62E0D9"/>
</svg>
