<svg width="17" height="17" viewBox="0 0 17 17" fill="none" xmlns="http://www.w3.org/2000/svg">
<path d="M7.33015 5.187V6.564H6.25V8.247H7.33015V13.25H9.55047V8.247H11.04C11.04 8.247 11.1803 7.44 11.2479 6.557H9.55904V5.407C9.55904 5.234 9.80122 5.003 10.0413 5.003H11.25V3.25H9.60512C7.2755 3.25 7.33015 4.935 7.33015 5.187Z" fill="black"/>
<path d="M8.33068 0C3.73751 0 0 3.73647 0 8.33016C0 12.9239 3.73751 16.6603 8.33068 16.6603C12.9239 16.6603 16.6614 12.9239 16.6614 8.33016C16.6614 3.73647 12.9239 0 8.33068 0ZM8.33068 16.1055C4.04351 16.1055 0.555898 12.6173 0.555898 8.33016C0.555898 4.04299 4.04351 0.554859 8.33068 0.554859C12.6179 0.554859 16.1055 4.04299 16.1055 8.33016C16.1055 12.6173 12.6179 16.1055 8.33068 16.1055Z" fill="black"/>
</svg>
