<svg width="17" height="17" viewBox="0 0 17 17" fill="none" xmlns="http://www.w3.org/2000/svg">
<path d="M8.5 6.4375C8.09208 6.4375 7.69331 6.55846 7.35414 6.78509C7.01496 7.01172 6.7506 7.33384 6.5945 7.71072C6.43839 8.08759 6.39755 8.50229 6.47713 8.90237C6.55671 9.30246 6.75315 9.66996 7.04159 9.95841C7.33004 10.2469 7.69754 10.4433 8.09763 10.5229C8.49771 10.6025 8.91241 10.5616 9.28928 10.4055C9.66616 10.2494 9.98828 9.98504 10.2149 9.64586C10.4415 9.30669 10.5625 8.90792 10.5625 8.5C10.5625 7.95299 10.3452 7.42839 9.95841 7.04159C9.57161 6.6548 9.04701 6.4375 8.5 6.4375ZM8.5 10.1875C8.16624 10.1875 7.83998 10.0885 7.56248 9.90311C7.28497 9.71768 7.06868 9.45413 6.94095 9.14578C6.81323 8.83743 6.77981 8.49813 6.84492 8.17078C6.91004 7.84344 7.07076 7.54276 7.30676 7.30676C7.54276 7.07076 7.84344 6.91004 8.17078 6.84492C8.49813 6.77981 8.83743 6.81323 9.14578 6.94095C9.45413 7.06868 9.71768 7.28497 9.90311 7.56248C10.0885 7.83998 10.1875 8.16624 10.1875 8.5C10.1875 8.94755 10.0097 9.37677 9.69324 9.69324C9.37677 10.0097 8.94755 10.1875 8.5 10.1875V10.1875ZM10.5625 4H6.4375C5.79103 4 5.17105 4.25681 4.71393 4.71393C4.25681 5.17105 4 5.79103 4 6.4375V10.5625C4 10.8826 4.06305 11.1996 4.18554 11.4953C4.30804 11.791 4.48758 12.0597 4.71393 12.2861C5.17105 12.7432 5.79103 13 6.4375 13H10.5625C10.8826 13 11.1996 12.937 11.4953 12.8145C11.791 12.692 12.0597 12.5124 12.2861 12.2861C12.5124 12.0597 12.692 11.791 12.8145 11.4953C12.937 11.1996 13 10.8826 13 10.5625V6.4375C13 6.1174 12.937 5.80044 12.8145 5.50471C12.692 5.20898 12.5124 4.94027 12.2861 4.71393C12.0597 4.48758 11.791 4.30804 11.4953 4.18554C11.1996 4.06305 10.8826 4 10.5625 4V4ZM12.625 10.5625C12.625 11.1095 12.4077 11.6341 12.0209 12.0209C11.6341 12.4077 11.1095 12.625 10.5625 12.625H6.4375C5.89049 12.625 5.36589 12.4077 4.97909 12.0209C4.5923 11.6341 4.375 11.1095 4.375 10.5625V6.4375C4.375 5.89049 4.5923 5.36589 4.97909 4.97909C5.36589 4.5923 5.89049 4.375 6.4375 4.375H10.5625C11.1095 4.375 11.6341 4.5923 12.0209 4.97909C12.4077 5.36589 12.625 5.89049 12.625 6.4375V10.5625ZM11.3125 6.0625C11.3125 6.13667 11.2905 6.20917 11.2493 6.27084C11.2081 6.33251 11.1495 6.38057 11.081 6.40895C11.0125 6.43734 10.9371 6.44476 10.8643 6.43029C10.7916 6.41583 10.7248 6.38011 10.6723 6.32766C10.6199 6.27522 10.5842 6.2084 10.5697 6.13566C10.5552 6.06292 10.5627 5.98752 10.591 5.91899C10.6194 5.85047 10.6675 5.7919 10.7292 5.7507C10.7908 5.70949 10.8633 5.6875 10.9375 5.6875C11.037 5.6875 11.1323 5.72701 11.2027 5.79734C11.273 5.86766 11.3125 5.96304 11.3125 6.0625Z" fill="#62E0D9"/>
<path d="M8.5 0C3.81347 0 0 3.81265 0 8.5C0 13.1874 3.81347 17 8.5 17C13.1865 17 17 13.1874 17 8.5C17 3.81265 13.1865 0 8.5 0ZM8.5 16.4338C4.12569 16.4338 0.567197 12.8746 0.567197 8.5C0.567197 4.12542 4.12569 0.566172 8.5 0.566172C12.8743 0.566172 16.4328 4.12542 16.4328 8.5C16.4328 12.8746 12.8743 16.4338 8.5 16.4338Z" fill="#62E0D9"/>
</svg>
