<svg width="18" height="18" viewBox="0 0 18 18" fill="none" xmlns="http://www.w3.org/2000/svg">
<path d="M8.75 6.6875C8.34208 6.6875 7.94331 6.80846 7.60414 7.03509C7.26496 7.26172 7.0006 7.58384 6.8445 7.96072C6.68839 8.33759 6.64755 8.75229 6.72713 9.15237C6.80671 9.55246 7.00315 9.91996 7.29159 10.2084C7.58004 10.4969 7.94754 10.6933 8.34763 10.7729C8.74771 10.8525 9.16241 10.8116 9.53928 10.6555C9.91616 10.4994 10.2383 10.235 10.4649 9.89586C10.6915 9.55669 10.8125 9.15792 10.8125 8.75C10.8125 8.20299 10.5952 7.67839 10.2084 7.29159C9.82161 6.9048 9.29701 6.6875 8.75 6.6875ZM8.75 10.4375C8.41624 10.4375 8.08998 10.3385 7.81248 10.1531C7.53497 9.96768 7.31868 9.70413 7.19095 9.39578C7.06323 9.08743 7.02981 8.74813 7.09492 8.42078C7.16004 8.09344 7.32076 7.79276 7.55676 7.55676C7.79276 7.32076 8.09344 7.16004 8.42078 7.09492C8.74813 7.02981 9.08743 7.06323 9.39578 7.19095C9.70413 7.31868 9.96768 7.53497 10.1531 7.81248C10.3385 8.08998 10.4375 8.41624 10.4375 8.75C10.4375 9.19755 10.2597 9.62677 9.94324 9.94324C9.62677 10.2597 9.19755 10.4375 8.75 10.4375V10.4375ZM10.8125 4.25H6.6875C6.04103 4.25 5.42105 4.50681 4.96393 4.96393C4.50681 5.42105 4.25 6.04103 4.25 6.6875V10.8125C4.25 11.1326 4.31305 11.4496 4.43554 11.7453C4.55804 12.041 4.73758 12.3097 4.96393 12.5361C5.42105 12.9932 6.04103 13.25 6.6875 13.25H10.8125C11.1326 13.25 11.4496 13.187 11.7453 13.0645C12.041 12.942 12.3097 12.7624 12.5361 12.5361C12.7624 12.3097 12.942 12.041 13.0645 11.7453C13.187 11.4496 13.25 11.1326 13.25 10.8125V6.6875C13.25 6.3674 13.187 6.05044 13.0645 5.75471C12.942 5.45898 12.7624 5.19027 12.5361 4.96393C12.3097 4.73758 12.041 4.55804 11.7453 4.43554C11.4496 4.31305 11.1326 4.25 10.8125 4.25V4.25ZM12.875 10.8125C12.875 11.3595 12.6577 11.8841 12.2709 12.2709C11.8841 12.6577 11.3595 12.875 10.8125 12.875H6.6875C6.14049 12.875 5.61589 12.6577 5.22909 12.2709C4.8423 11.8841 4.625 11.3595 4.625 10.8125V6.6875C4.625 6.14049 4.8423 5.61589 5.22909 5.22909C5.61589 4.8423 6.14049 4.625 6.6875 4.625H10.8125C11.3595 4.625 11.8841 4.8423 12.2709 5.22909C12.6577 5.61589 12.875 6.14049 12.875 6.6875V10.8125ZM11.5625 6.3125C11.5625 6.38667 11.5405 6.45917 11.4993 6.52084C11.4581 6.58251 11.3995 6.63057 11.331 6.65895C11.2625 6.68734 11.1871 6.69476 11.1143 6.68029C11.0416 6.66583 10.9748 6.63011 10.9223 6.57766C10.8699 6.52522 10.8342 6.4584 10.8197 6.38566C10.8052 6.31292 10.8127 6.23752 10.841 6.16899C10.8694 6.10047 10.9175 6.0419 10.9792 6.0007C11.0408 5.95949 11.1133 5.9375 11.1875 5.9375C11.287 5.9375 11.3823 5.97701 11.4527 6.04734C11.523 6.11766 11.5625 6.21304 11.5625 6.3125Z" fill="black"/>
<path d="M8.75 0.25C4.06347 0.25 0.25 4.06265 0.25 8.75C0.25 13.4374 4.06347 17.25 8.75 17.25C13.4365 17.25 17.25 13.4374 17.25 8.75C17.25 4.06265 13.4365 0.25 8.75 0.25ZM8.75 16.6838C4.37569 16.6838 0.817197 13.1246 0.817197 8.75C0.817197 4.37542 4.37569 0.816172 8.75 0.816172C13.1243 0.816172 16.6828 4.37542 16.6828 8.75C16.6828 13.1246 13.1243 16.6838 8.75 16.6838Z" fill="black"/>
</svg>
