<svg width="18" height="18" viewBox="0 0 18 18" fill="none" xmlns="http://www.w3.org/2000/svg">
<path d="M13 6.71025C12.8082 7.0117 12.5654 7.28011 12.2836 7.49484C12.2875 7.55678 12.2875 7.62285 12.2875 7.68892C12.2875 9.69167 10.8428 12 8.20414 12C7.39374 12 6.63814 11.7481 6 11.3187C6.11353 11.331 6.22707 11.3393 6.34452 11.3393C7.0179 11.3393 7.63647 11.0957 8.12584 10.691C7.82648 10.6845 7.53652 10.5795 7.29648 10.3907C7.05643 10.2019 6.87828 9.93875 6.78691 9.63799C6.87304 9.65451 6.96309 9.6669 7.05705 9.6669C7.18624 9.6669 7.31544 9.64625 7.43289 9.61321C7.10818 9.54291 6.81639 9.35665 6.60671 9.08585C6.39704 8.81505 6.28231 8.47627 6.28188 8.12663V8.11012C6.47763 8.22161 6.69687 8.29181 6.93177 8.30007C6.73516 8.16096 6.57408 7.9729 6.46277 7.75251C6.35147 7.53211 6.29337 7.28619 6.29362 7.03648C6.29362 6.75981 6.36409 6.49966 6.48937 6.27667C7.19799 7.19339 8.25503 7.79628 9.4491 7.85822C9.42561 7.74673 9.40996 7.63111 9.40996 7.51136C9.41099 7.11014 9.56283 6.72573 9.83217 6.44241C10.1015 6.1591 10.4664 6 10.8468 6C11.2617 6 11.6337 6.18169 11.896 6.47901C12.2209 6.40881 12.5302 6.28493 12.8082 6.11149C12.6985 6.46249 12.4715 6.75981 12.1739 6.94563C12.4592 6.91274 12.7379 6.83334 13 6.71025V6.71025Z" fill="#62E0D9"/>
<path d="M9.00004 0.983002C4.57954 0.983002 0.982544 4.579 0.982544 9C0.982544 13.421 4.57954 17.017 9.00004 17.017C13.4205 17.017 17.0175 13.421 17.0175 9C17.0175 4.579 13.4205 0.983002 9.00004 0.983002ZM9.00004 16.483C4.87404 16.483 1.51754 13.126 1.51754 9C1.51754 4.874 4.87404 1.517 9.00004 1.517C13.126 1.517 16.4825 4.874 16.4825 9C16.4825 13.126 13.126 16.483 9.00004 16.483Z" fill="#62E0D9"/>
</svg>
