<svg width="17" height="17" viewBox="0 0 17 17" fill="none" xmlns="http://www.w3.org/2000/svg">
<path d="M12.25 6.22206C12.0582 6.53729 11.8154 6.81797 11.5336 7.04251C11.5375 7.10729 11.5375 7.17638 11.5375 7.24547C11.5375 9.33978 10.0928 11.7536 7.45414 11.7536C6.64374 11.7536 5.88814 11.4902 5.25 11.0411C5.36353 11.0541 5.47707 11.0627 5.59452 11.0627C6.2679 11.0627 6.88647 10.808 7.37584 10.3848C7.07648 10.3779 6.78652 10.2682 6.54648 10.0707C6.30643 9.87333 6.12828 9.59815 6.03691 9.28364C6.12304 9.30091 6.21309 9.31387 6.30705 9.31387C6.43624 9.31387 6.56544 9.29228 6.68289 9.25773C6.35818 9.18421 6.06639 8.98944 5.85671 8.70626C5.64704 8.42308 5.53231 8.06881 5.53188 7.70319V7.68592C5.72763 7.80251 5.94687 7.87592 6.18177 7.88456C5.98516 7.73909 5.82408 7.54243 5.71277 7.31196C5.60147 7.08149 5.54337 6.82432 5.54362 6.5632C5.54362 6.27388 5.61409 6.00184 5.73937 5.76866C6.44799 6.72729 7.50503 7.35774 8.6991 7.42251C8.67561 7.30592 8.65996 7.18501 8.65996 7.05979C8.66099 6.64023 8.81283 6.23825 9.08217 5.94198C9.35151 5.64571 9.71637 5.47934 10.0968 5.47934C10.5117 5.47934 10.8837 5.66934 11.146 5.98025C11.4709 5.90684 11.7802 5.77729 12.0582 5.59593C11.9485 5.96297 11.7215 6.27388 11.4239 6.4682C11.7092 6.43381 11.9879 6.35078 12.25 6.22206V6.22206Z" fill="white"/>
<path d="M8.25004 0.233002C3.82954 0.233002 0.232544 3.99339 0.232544 8.6165C0.232544 13.2396 3.82954 17 8.25004 17C12.6705 17 16.2675 13.2396 16.2675 8.6165C16.2675 3.99339 12.6705 0.233002 8.25004 0.233002ZM8.25004 16.4416C4.12404 16.4416 0.767544 12.9311 0.767544 8.6165C0.767544 4.30188 4.12404 0.791414 8.25004 0.791414C12.376 0.791414 15.7325 4.30188 15.7325 8.6165C15.7325 12.9311 12.376 16.4416 8.25004 16.4416Z" fill="white"/>
</svg>
