<svg width="17" height="17" viewBox="0 0 17 17" fill="none" xmlns="http://www.w3.org/2000/svg">
<path d="M12.25 5.96025C12.0582 6.2617 11.8154 6.53011 11.5336 6.74484C11.5375 6.80678 11.5375 6.87285 11.5375 6.93892C11.5375 8.94167 10.0928 11.25 7.45414 11.25C6.64374 11.25 5.88814 10.9981 5.25 10.5687C5.36353 10.581 5.47707 10.5893 5.59452 10.5893C6.2679 10.5893 6.88647 10.3457 7.37584 9.94098C7.07648 9.93445 6.78652 9.82946 6.54648 9.64068C6.30643 9.4519 6.12828 9.18875 6.03691 8.88799C6.12304 8.90451 6.21309 8.9169 6.30705 8.9169C6.43624 8.9169 6.56544 8.89625 6.68289 8.86321C6.35818 8.79291 6.06639 8.60665 5.85671 8.33585C5.64704 8.06505 5.53231 7.72627 5.53188 7.37663V7.36012C5.72763 7.47161 5.94687 7.54181 6.18177 7.55007C5.98516 7.41096 5.82408 7.2229 5.71277 7.00251C5.60147 6.78211 5.54337 6.53619 5.54362 6.28648C5.54362 6.00981 5.61409 5.74966 5.73937 5.52667C6.44799 6.44339 7.50503 7.04628 8.6991 7.10822C8.67561 6.99673 8.65996 6.88111 8.65996 6.76136C8.66099 6.36014 8.81283 5.97573 9.08217 5.69241C9.35151 5.4091 9.71637 5.25 10.0968 5.25C10.5117 5.25 10.8837 5.43169 11.146 5.72901C11.4709 5.65881 11.7802 5.53493 12.0582 5.36149C11.9485 5.71249 11.7215 6.00981 11.4239 6.19563C11.7092 6.16274 11.9879 6.08334 12.25 5.96025V5.96025Z" fill="black"/>
<path d="M8.25004 0.233002C3.82954 0.233002 0.232544 3.829 0.232544 8.25C0.232544 12.671 3.82954 16.267 8.25004 16.267C12.6705 16.267 16.2675 12.671 16.2675 8.25C16.2675 3.829 12.6705 0.233002 8.25004 0.233002ZM8.25004 15.733C4.12404 15.733 0.767544 12.376 0.767544 8.25C0.767544 4.124 4.12404 0.767002 8.25004 0.767002C12.376 0.767002 15.7325 4.124 15.7325 8.25C15.7325 12.376 12.376 15.733 8.25004 15.733Z" fill="black"/>
</svg>
